# Blender v2.63 (sub 0) OBJ File: ''
# www.blender.org
mtllib Sphere_Simple.mtl
o Sphere_Sphere.003
v -0.382683 0.923880 0.000000
v -0.707107 0.707107 0.000000
v -1.000000 -0.000000 0.000000
v -0.923880 -0.382684 0.000000
v -0.707107 -0.707107 0.000000
v -0.382683 -0.923880 0.000000
v -0.000000 -1.000000 0.000000
v -0.270598 0.923880 -0.270598
v -0.500000 0.707107 -0.500000
v -0.653282 0.382683 -0.653281
v -0.707107 -0.000000 -0.707107
v -0.653282 -0.382684 -0.653281
v -0.500000 -0.707107 -0.500000
v -0.270598 -0.923880 -0.270598
v -0.000000 0.923880 -0.382683
v -0.000000 0.707107 -0.707107
v -0.000000 0.382683 -0.923879
v -0.000000 -0.000000 -1.000000
v -0.000000 -0.382684 -0.923879
v -0.000000 -0.707107 -0.707107
v -0.000000 -0.923880 -0.382683
v -0.000000 1.000000 0.000000
v 0.270598 0.923880 -0.270598
v 0.500000 0.707107 -0.500000
v 0.653281 0.382683 -0.653281
v 0.707107 -0.000000 -0.707107
v 0.653281 -0.382684 -0.653281
v 0.500000 -0.707107 -0.500000
v 0.270598 -0.923880 -0.270598
v 0.382683 0.923880 0.000000
v 0.707106 0.707107 0.000000
v 0.923879 0.382683 0.000000
v 1.000000 -0.000000 0.000000
v 0.923879 -0.382684 0.000000
v 0.707106 -0.707107 0.000000
v 0.382683 -0.923880 0.000000
v 0.270598 0.923880 0.270598
v 0.500000 0.707107 0.500000
v 0.653281 0.382683 0.653282
v 0.707106 -0.000000 0.707107
v 0.653281 -0.382684 0.653282
v 0.500000 -0.707107 0.500000
v 0.270598 -0.923880 0.270598
v -0.000000 0.923880 0.382683
v -0.000000 0.707107 0.707107
v -0.000000 0.382683 0.923880
v -0.000000 -0.000000 1.000000
v -0.000000 -0.382684 0.923880
v -0.000000 -0.707107 0.707107
v -0.000000 -0.923880 0.382683
v -0.270598 0.923880 0.270598
v -0.500000 0.707107 0.500000
v -0.653282 0.382683 0.653281
v -0.707107 -0.000000 0.707107
v -0.653282 -0.382684 0.653281
v -0.500000 -0.707107 0.500000
v -0.270598 -0.923880 0.270598
v -0.923880 0.382683 -0.000000
vn -0.515915 -0.683828 -0.515915
vn -0.298807 -0.906308 -0.298807
vn -0.422559 -0.906308 0.000000
vn -0.729606 -0.683828 0.000000
vn -0.657796 -0.366771 -0.657796
vn -0.930296 -0.366771 0.000000
vn -0.729606 0.683828 0.000000
vn -0.422559 0.906308 0.000000
vn -0.298807 0.906308 -0.298807
vn -0.515915 0.683828 -0.515915
vn -0.707083 0.000000 -0.707083
vn -1.000000 0.000000 0.000000
vn 0.000000 -0.366771 -0.930296
vn 0.000000 -0.683828 -0.729606
vn 0.000000 0.906308 -0.422559
vn 0.000000 0.683828 -0.729606
vn 0.000000 0.000000 -1.000000
vn 0.000000 0.366771 -0.930296
vn -0.657796 0.366771 -0.657796
vn 0.000000 -0.906308 -0.422559
vn 0.657796 -0.366771 -0.657796
vn 0.515915 -0.683828 -0.515915
vn 0.298807 0.906308 -0.298807
vn 0.515915 0.683828 -0.515915
vn 0.707083 0.000000 -0.707083
vn 0.657796 0.366771 -0.657796
vn 0.298807 -0.906308 -0.298807
vn 0.930296 -0.366771 0.000000
vn 0.729606 -0.683828 0.000000
vn 0.422559 0.906308 0.000000
vn 0.729606 0.683828 0.000000
vn 1.000000 0.000000 0.000000
vn 0.930296 0.366771 0.000000
vn 0.422559 -0.906308 0.000000
vn 0.657796 -0.366771 0.657796
vn 0.515915 -0.683828 0.515915
vn 0.298807 0.906308 0.298807
vn 0.515915 0.683828 0.515915
vn 0.707083 0.000000 0.707083
vn 0.657796 0.366771 0.657796
vn 0.298807 -0.906308 0.298807
vn 0.000000 -0.366771 0.930296
vn 0.000000 -0.683828 0.729606
vn 0.000000 0.906308 0.422559
vn 0.000000 0.683828 0.729606
vn 0.000000 0.000000 1.000000
vn 0.000000 0.366771 0.930296
vn 0.000000 -0.906308 0.422559
vn -0.657796 -0.366771 0.657796
vn -0.515915 -0.683828 0.515915
vn -0.298807 0.906308 0.298807
vn -0.515915 0.683828 0.515915
vn -0.707083 0.000000 0.707083
vn -0.657796 0.366771 0.657796
vn -0.298807 -0.906308 0.298807
vn -0.930296 0.366771 0.000000
vn 0.000000 -1.000000 0.000000
vn 0.000000 1.000000 0.000000
usemtl 
s 1
f 13//1 14//2 6//3 5//4
f 12//5 13//1 5//4 4//6
f 2//7 1//8 8//9 9//10
f 11//11 12//5 4//6 3//12
f 19//13 20//14 13//1 12//5
f 15//15 16//16 9//10 8//9
f 18//17 19//13 12//5 11//11
f 17//18 18//17 11//11 10//19
f 20//14 21//20 14//2 13//1
f 16//16 17//18 10//19 9//10
f 27//21 28//22 20//14 19//13
f 23//23 24//24 16//16 15//15
f 26//25 27//21 19//13 18//17
f 25//26 26//25 18//17 17//18
f 28//22 29//27 21//20 20//14
f 24//24 25//26 17//18 16//16
f 34//28 35//29 28//22 27//21
f 30//30 31//31 24//24 23//23
f 33//32 34//28 27//21 26//25
f 32//33 33//32 26//25 25//26
f 35//29 36//34 29//27 28//22
f 31//31 32//33 25//26 24//24
f 41//35 42//36 35//29 34//28
f 37//37 38//38 31//31 30//30
f 40//39 41//35 34//28 33//32
f 39//40 40//39 33//32 32//33
f 42//36 43//41 36//34 35//29
f 38//38 39//40 32//33 31//31
f 48//42 49//43 42//36 41//35
f 44//44 45//45 38//38 37//37
f 47//46 48//42 41//35 40//39
f 46//47 47//46 40//39 39//40
f 49//43 50//48 43//41 42//36
f 45//45 46//47 39//40 38//38
f 55//49 56//50 49//43 48//42
f 51//51 52//52 45//45 44//44
f 54//53 55//49 48//42 47//46
f 53//54 54//53 47//46 46//47
f 56//50 57//55 50//48 49//43
f 52//52 53//54 46//47 45//45
f 10//19 11//11 3//12 58//56
f 9//10 10//19 58//56 2//7
f 14//2 7//57 6//3
f 8//9 1//8 22//58
f 21//20 7//57 14//2
f 22//58 15//15 8//9
f 29//27 7//57 21//20
f 22//58 23//23 15//15
f 36//34 7//57 29//27
f 22//58 30//30 23//23
f 43//41 7//57 36//34
f 22//58 37//37 30//30
f 50//48 7//57 43//41
f 22//58 44//44 37//37
f 57//55 7//57 50//48
f 22//58 51//51 44//44
f 4//6 5//4 56//50 55//49
f 1//8 2//7 52//52 51//51
f 3//12 4//6 55//49 54//53
f 6//3 7//57 57//55
f 22//58 1//8 51//51
f 58//56 3//12 54//53 53//54
f 5//4 6//3 57//55 56//50
f 2//7 58//56 53//54 52//52
